<svg width="20" height="20" viewBox="0 0 20 20" fill="none" xmlns="http://www.w3.org/2000/svg">
<g id="vuesax/linear/global">
<g id="global">
<path id="Vector" d="M10.0003 18.3307C14.6027 18.3307 18.3337 14.5998 18.3337 9.9974C18.3337 5.39502 14.6027 1.66406 10.0003 1.66406C5.39795 1.66406 1.66699 5.39502 1.66699 9.9974C1.66699 14.5998 5.39795 18.3307 10.0003 18.3307Z" stroke="#FD7B2C" strokeWidth="1.25" strokeLinecap="round" strokeLinejoin="round"/>
<path id="Vector_2" d="M6.66667 2.49805H7.5C5.875 7.36471 5.875 12.6314 7.5 17.498H6.66667" stroke="#FD7B2C" strokeWidth="1.25" strokeLinecap="round" strokeLinejoin="round"/>
<path id="Vector_3" d="M12.5 2.49805C14.125 7.36471 14.125 12.6314 12.5 17.498" stroke="#FD7B2C" strokeWidth="1.25" strokeLinecap="round" strokeLinejoin="round"/>
<path id="Vector_4" d="M2.5 13.3314V12.498C7.36667 14.123 12.6333 14.123 17.5 12.498V13.3314" stroke="#FD7B2C" strokeWidth="1.25" strokeLinecap="round" strokeLinejoin="round"/>
<path id="Vector_5" d="M2.5 7.49805C7.36667 5.87305 12.6333 5.87305 17.5 7.49805" stroke="#FD7B2C" strokeWidth="1.25" strokeLinecap="round" strokeLinejoin="round"/>
</g>
</g>
</svg>
