<svg width="74" height="83" viewBox="0 0 74 83" fill="none" xmlns="http://www.w3.org/2000/svg">
<g id="Layer_1-2">
<path id="Vector" d="M1.95384 78.6367C0.72294 78.7407 0.194182 79.4775 0.228855 80.6478C0.25486 81.6273 0.722948 82.2861 1.77181 82.3208C2.9507 82.3641 3.72218 81.8007 3.79153 80.5958C3.86088 79.3735 3.09806 78.8014 1.95384 78.6367Z" fill="#FF6100"/>
<path id="Vector_2" d="M71.6207 0.5C70.5718 0.690703 69.6876 1.19346 69.8263 2.4417C69.9564 3.55125 70.6758 4.26205 71.8981 4.1667C72.9383 4.08001 73.3803 3.29986 73.4844 2.40703C73.6231 1.14145 72.8256 0.621356 71.6207 0.508668V0.5Z" fill="#FF6100"/>
<path id="Vector_3" d="M56.5813 9.57591C57.5695 9.61925 58.3063 9.26385 58.4189 8.19765C58.5316 7.09677 58.2889 6.12592 56.954 6.01323C55.9658 5.93522 55.2377 6.48132 55.047 7.40883C54.8129 8.57038 55.3937 9.3332 56.5899 9.56724L56.5813 9.57591Z" fill="#FF6100"/>
<path id="Vector_4" d="M41.7413 15.262C41.7326 16.2241 42.0967 17.013 43.0849 17.1777C44.3158 17.3857 44.9486 16.5275 45.174 15.4873C45.3907 14.4818 44.7405 13.7883 43.813 13.6497C42.6775 13.4763 41.8627 13.9964 41.7413 15.262Z" fill="#FF6100"/>
<path id="Vector_5" d="M29.1113 25.221C29.302 26.3913 29.9348 27.0327 31.0877 27.0241C32.1105 27.0154 32.6046 26.3826 32.6133 25.4204C32.6133 24.3542 32.2665 23.4267 31.001 23.418C29.8308 23.4094 29.302 24.1895 29.12 25.221H29.1113Z" fill="#FF6100"/>
<path id="Vector_6" d="M10.1193 50.2478C10.2753 51.366 10.8474 52.0162 12.0349 52.0248C13.1271 52.0335 13.4825 51.3227 13.5086 50.4039C13.5346 49.485 13.1445 48.6962 12.165 48.5835C11.0207 48.4535 10.388 49.173 10.1193 50.2478Z" fill="#FF6100"/>
<path id="Vector_7" d="M11.1045 36.6055C20.8128 35.8958 21.3912 35.3174 22.1044 25.6056C22.8141 35.3139 23.3925 35.8922 33.1043 36.6055C23.396 37.3151 22.8176 37.8935 22.1044 47.6054C21.3947 37.8971 20.8163 37.3187 11.1045 36.6055Z" fill="#FF6100"/>
<path id="Vector_8" d="M4.11166 64.957C4.28503 65.8585 4.58841 66.604 5.63728 66.6647C6.90285 66.7427 7.39696 65.9452 7.44897 64.8617C7.50098 63.9342 7.06756 63.2494 6.01002 63.2147C4.80513 63.1714 4.2937 63.9082 4.103 64.9657L4.11166 64.957Z" fill="#FF6100"/>
</g>
</svg>
